/* XPM */
static char *result[] = {
/* columns rows colors chars-per-pixel */
"32 32 37 1 ",
"  c #A1A596",
". c #A6AA9A",
"X c #AEB1A0",
"o c #A4A898",
"O c #A2A697",
"+ c #ACB09F",
"@ c #A8AC9C",
"# c #A5A99A",
"$ c #B0B3A2",
"% c #B2B5A4",
"& c #AEB1A1",
"* c #A3A798",
"= c #ACAF9F",
"- c #B1B4A3",
"; c #A7AB9B",
": c #AAAE9E",
"> c #AAAD9D",
", c #ADB0A0",
"< c #ADB09F",
"1 c #A3A797",
"2 c #ABAF9E",
"3 c #A9AC9C",
"4 c #A8AB9B",
"5 c #A2A696",
"6 c #A8AB9C",
"7 c #A6A99A",
"8 c #A9AD9D",
"9 c #B1B5A4",
"0 c #AFB3A2",
"q c #B0B4A3",
"w c #B0B3A3",
"e c #ABAE9E",
"r c #A5A999",
"t c #AFB2A1",
"y c #A4A899",
"u c #ABAF9F",
"i c white",
/* pixels */
"    .Xo                  O+@    ",
"   #$%&*                O=%-;   ",
"  #$%%%&*              O=%%%-;  ",
" #$%%%%%&*            O=%%%%%-; ",
".$%%%%%%%&*          O=%%%%%%%-@",
":%%%%%%%%->*        O@$%%%%%%%%,",
"O:%%%%%%-<$&*      O=-+$%%%%%%<*",
" O:%%%%-<$%%&*    O=%%-+$%%%%,1 ",
"  O:%%-<$%%%%&*  O=%%%%-+$%%,1  ",
"   O:-,$%%%%%%&*O=%%%%%%-+$,1   ",
"    O;$%%%%%%%%,2%%%%%%%%-3O    ",
"     O:%%%%%%%-4.$%%%%%%%,1     ",
"      O:%%%%%-4  #$%%%%%,1      ",
"       O:%%%-4    #$%%%,1       ",
"        O:%-4      #$%,1        ",
"         5:6        7=1         ",
"         O=8        ;,*         ",
"        O=%98      ;-%&*        ",
"       O=%%%98    ;-%%%&*       ",
"      O=%%%%%98  ;-%%%%%&*      ",
"     O=%%%%%%%98;-%%%%%%%&*     ",
"    O30%%%%%%%%+:%%%%%%%%q>*    ",
"   O=-,0%%%%%%,15:%%%%%%w+-&*   ",
"  O=%%-,0%%%%,1  O:%%%%w+-%%&*  ",
" O=%%%%-,0%%,1    O:%%w+-%%%%&* ",
"1=%%%%%%-,0,1      O:$+-%%%%%%&o",
"e%%%%%%%%-8O        O;w%%%%%%%%&",
"rt%%%%%%%,1          O:%%%%%%%$;",
" yt%%%%%,1            O:%%%%%$. ",
"  yt%%%,1              O:%%%$.  ",
"   yt%<1                O:%$.   ",
"    ru*                  O:;    "
};
