/* XPM */
static char *_f7df25f46c9453998d85c92ba4b49b21Fu22mKEc35TSa6T[] = {
/* columns rows colors chars-per-pixel */
"64 64 109 2 ",
"   c #202020",
".  c gray13",
"X  c #222222",
"o  c #232323",
"O  c gray14",
"+  c #252525",
"@  c gray15",
"#  c #282828",
"$  c gray16",
"%  c #2A2A2A",
"&  c gray17",
"*  c #2C2C2C",
"=  c gray18",
"-  c #2F2F2F",
";  c gray19",
":  c #313131",
">  c #323232",
",  c gray20",
"<  c #343434",
"1  c #353535",
"2  c gray21",
"3  c #373737",
"4  c gray22",
"5  c #393939",
"6  c #3A3A3A",
"7  c gray23",
"8  c #3C3C3C",
"9  c gray24",
"0  c #3E3E3E",
"q  c #3F3F3F",
"w  c gray25",
"e  c #414141",
"r  c gray26",
"t  c #434343",
"y  c #444444",
"u  c gray27",
"i  c #464646",
"p  c #484848",
"a  c #494949",
"s  c gray29",
"d  c #4B4B4B",
"f  c #4C4C4C",
"g  c gray30",
"h  c #4E4E4E",
"j  c gray31",
"k  c #505050",
"l  c #515151",
"z  c gray32",
"x  c #535353",
"c  c gray33",
"v  c #555555",
"b  c #565656",
"n  c gray34",
"m  c #585858",
"M  c gray35",
"N  c #5A5A5A",
"B  c #5B5B5B",
"V  c gray36",
"C  c #5D5D5D",
"Z  c gray37",
"A  c #5F5F5F",
"S  c #606060",
"D  c gray38",
"F  c #626262",
"G  c gray39",
"H  c #646464",
"J  c #656565",
"K  c gray40",
"L  c #676767",
"P  c #686868",
"I  c DimGray",
"U  c #6A6A6A",
"Y  c gray42",
"T  c #6C6C6C",
"R  c #6D6D6D",
"E  c gray43",
"W  c #727272",
"Q  c gray45",
"!  c #747474",
"~  c gray46",
"^  c #767676",
"/  c #777777",
"(  c #7C7C7C",
")  c gray50",
"_  c #808080",
"`  c #818181",
"'  c gray51",
"]  c #838383",
"[  c #848484",
"{  c gray52",
"}  c #868686",
"|  c #888888",
" . c #898989",
".. c gray54",
"X. c #8B8B8B",
"o. c gray55",
"O. c #8D8D8D",
"+. c #8E8E8E",
"@. c gray56",
"#. c #909090",
"$. c gray57",
"%. c #929292",
"&. c #939393",
"*. c gray58",
"=. c #959595",
"-. c gray59",
";. c #979797",
":. c #989898",
">. c gray60",
/* pixels */
"G G G G , , , , , , , , , , , , , , , , b b b b &.=.=.=.H G G H m b b b &.=.=.=.A b b m < , , , , , , , l b b b 7 , , , l b b b ",
"G G G G < , , , , , , , , , , , , , , , b b b b &.=.=.=.H G H G m b b b &.=.=.=.A b m m < , , , , , , , l b b b 7 , , , l b b b ",
"G G G G < , , , , , , , , , , , , , , , b b b b &.=.=.=.H H H G m b b b &.=.=.=.A b m m < , , , , , , , l b b b 7 , , , l b b b ",
"l l l l y y y y y y y y b b b b y y y e Y E E E _ [ [ [ / / / / h d d d @.=.=.=.Q E E E d y y y , = = = y d d d e 8 8 8 d d d d ",
", , , , G G G G G G G G =.=.=.=.H G G G &.=.=.=.H G G G &.=.=.=.7 , , , @.=.=.=.=.=.=.=.Y G G G # . . . , , , , l b b b 7 , , , ",
", , , , G G G G G G G G =.=.=.=.H G G G =.=.=.=.H G G G &.=.=.:.7 , , , @.=.=.=.=.=.=.=.Y H G G # . . . , , , , l b b b 7 , , , ",
", , , , G G G G G G H G =.=.=.=.H G G G =.=.=.=.H G G G &.=.=.:.7 , < , @.=.=.=.=.=.=.=.Y H H G # . . . , , , , l b b b 7 , , , ",
", , , , h h h h l b b l / / / / l h h h / / / / b l l l / / / / b l l l Q / / / _ _ _ _ H G G A 7 , , , h l l l b b b b y e e e ",
", , , , . . . . , , , , , , , , . . . . , , , , , , , , , , , , @.=.=.=.8 , , , l b b b b b b b b b b b @.=.=.=.G b b b G G G G ",
", , , , . . . . , , , , , , , , . . . . , , , , , , , , , , , , @.=.=.:.8 , , , l b b b b b b b b b b b @.=.=.=.G b b b G G G G ",
", , , , . . . . , , , , , , , , . . . . , , , , , , , , , , , , @.=.=.:.8 , , , l b b b b b b b b b b b @.=.=.=.G b b b G G G G ",
"8 8 8 8 e e e e e e e e e e e e , , , , = = = = 7 8 8 8 h h h h _ [ [ [ y 8 8 8 d h h h h h h h h h h h / ) ) ) b h h h A A A A ",
"b b b b =.=.=.=.H G G G G G G G b b b b + . . . l b b b &.=.=.=.A b b b b b b b < , , , , , , , , , , , , , , , , , , , l b b b ",
"b b b b =.=.=.=.H G G G G G G G b b b b + . . . l b b b &.=.=.=.A b b b m b b b < , , , , , , , , , , , , , , , , , , , l b b b ",
"b b b b =.=.=.=.H G G G G G G G b b b b + . . . l b b b &.=.=.=.A b b b m b b b < , , , , , , , , , , , , , , , , , , , l b b b ",
"d d d d ) _ _ _ E E E E m m m m h h h h # + + + h h h h [  . . .l h h h h h h h 8 8 8 8 d d d d d d d d 8 8 8 8 8 8 8 8 d h h h ",
". . . . , , , , =.=.=.=.< , , , , , , , , , , , , , , , b b b b < , , , , , , , A G G G &.=.=.=.=.=.=.=.Y G G G G G G G 7 , , , ",
". . . . , , , , =.=.=.=.< , , , , , , , , , , , , , , , b b b b < , , , , , , , A G G G &.=.=.=.=.=.=.=.Y G G G G G G G 8 , , , ",
". . . . , , , , =.=.=.=.< , , , , , , , , , , , , , , , b b b b < , , , , , , , A G G G &.=.=.=.=.=.=.=.Y G G G G G G G 8 , , , ",
"+ + + + 7 7 7 7  . . . .8 7 7 7 , , , , 7 7 7 7 7 7 7 7 h l l l < , , , , = = = m G G G [  . . .[ [ [ [ G m m m b b b b 7 , , , ",
", , , , b b b b b b b b b b b b < , , , b b b b b b b b < , , , , , , , . . . . l b b b b b b b 7 , , , , , , , + . . . = , , , ",
", , , , b b b b m m b b b b b b < , , , b b b b b b b b < , , , , , , , . . . . l b b b b b b b 7 < , , , , , , + . . . = , , , ",
", , , , b b b b b b b b b b b b < , , , b b b b b b b b < , , , , , , , . . . . l b b b b b b b 7 , , , , , , , + . . . = , , , ",
"e e e e G G G G m m m m b b b b 8 7 7 7 A G G G G G G G 8 7 7 7 7 7 7 7 = = = = m G G G G G G G e 7 7 7 e e e y # + + + = , , , ",
"=.=.=.:.:.=.=.=.H G G G b b b b G G G G =.=.=.=.=.=.=.:.Y G G G m b b b G G G G &.=.:.:.=.=.=.=.Y G G G @.=.=.:.y , , , + . . . ",
"=.=.=.=.=.=.=.=.H G G G b b b b G G G G =.=.=.=.=.=.=.=.Y H G G b b b b G G G G &.=.=.:.=.=.=.=.Y G G G @.=.=.=.y , , , + . . . ",
"=.=.=.:.=.:.=.=.H G H H b b b b G G H G =.=.=.=.=.=.=.=.H G G G b b b b G G G G &.=.:.:.=.=.=.=.Y G G G @.=.=.=.y , , , + . . . ",
"@.@.&.&.@.&.@.@.G G G G l l l l G G G G @.@.@.@.@.@.@.&.G A A A l l l l m m m m [  .@.@.@. . . .H G G G [  . . .y 7 7 7 # # # # ",
"b b b b b b b b b b b b , , , , b b b b b b b b b b b b < , , , , , , , . . . . , , , , , , , , l b b b < , , , m G G G m m m m ",
"m m m b m m b b b b b m < , , , b b b b b b b b b b b b < , , , , , < < . . . . , , , , , , , , l b b b 7 < , , m G G G m m m b ",
"m b b b b b b b b b b b < , , , b b b b b b b b b b b b < , , , , , , , . . . . , , , , , , , , l b b b 7 , , , m G G G m m b b ",
"m b b b m m m m m m m m < < < < l b b b b b b b b b b b 7 < < < < < < < # # # # 7 7 7 7 < < < < b m m m 8 7 7 7 A H H H A A m m ",
"G G G G =.=.=.=.=.=.:.:.m b b b < , , , , , , , b b b b b b b b G G G G &.:.:.:.:.:.:.:.Y G G G &.=.=.=.:.:.:.:.=.=.=.=.=.=.=.=.",
"G G G G =.=.=.=.=.=.:.:.m b b b < , , , , , , , b b b b b b b b G G G G &.=.=.=.=.=.=.=.Y G G G @.=.=.=.=.=.:.:.=.=.=.=.=.=.=.=.",
"G G G G =.=.=.=.=.:.:.:.m b b b < , , , , , , , b b b b b b b b G G G G &.=.=.=.=.=.=.=.Y G G G @.=.=.=.=.=.=.:.:.=.=.=.=.=.=.=.",
"G G G G &.&.&.&.&.=.=.=.b b b b < , , , < < < , l b b b b b b b G G G G &.=.=.=.=.=.=.=.Y G G G @.&.&.&.&.&.&.&.=.=.=.=.=.=.=.=.",
"b b b b , , , , , , , , . . . . , , , , b b b b < , , , b b b b < , , , A G G G m b b b < , , , , , , , , , , , [ :.=.=.E G G G ",
"b b b b , , , , , , , , . . . . , , , , b b b b < , , , b b b b < , , , A G G G m b b b < , , , , , , , , , , , [ :.=.=.E G G G ",
"b b b b , , , , , , , , . . . . , , , , b b b b < , , , b b b b < , , , A G G G m b b b < , , , , , , , , , , , [ :.:.:.E G G G ",
"b b b b < , , , < < < < . . . . , , , , b b b b < , , , b b b b < , , , A G G G m b b b 7 < < < < < < < , , , , [ =.=.=.E G G G ",
"G G G G G G G G =.=.=.=.< , , , G G G G &.=.=.=.=.=.=.=.7 , , , . . . . , , < ,  .=.=.=.=.=.=.=.=.=.=.=.Y G G G 8 < < < , < < < ",
"G G G G G G G G =.=.=.=.< , < , G G G G =.=.=.=.=.=.=.:.7 , , , . . . . , , , ,  .=.=.=.:.:.:.:.=.=.=.=.Y G G G 7 , , , , , , < ",
"G G G G G G G G =.=.=.=.< , , , G G G G &.=.=.=.=.=.=.:.7 , , , . . . . , , < ,  .=.=.=.=.=.:.=.=.=.=.=.Y G G G 7 , , , , , , , ",
"G G G G G G G G =.=.=.=.< , , , G G G G &.=.=.=.=.=.=.=.7 , , , . . . . , , < ,  .=.=.=.=.=.=.=.=.=.=.=.Y G G G 7 , , , , , , , ",
". . . . b b b b m m m m b b b b < , , , < < < < b m m m G G G G &.=.=.=.=.=.=.=.A m m m G H H H H G H G @.=.=.=.=.=.=.=.< . . . ",
". . . . b b b b b b b b b b b b < , , , , , , , b b b b G G G G &.=.=.=.=.=.=.=.A b b b G G G G G G G G &.:.:.=.=.=.=.=.< . . . ",
". . . . b b b b b b b b b b b b < , , , , , , , b b b b G G G G &.=.=.=.=.=.=.=.A b b b G G G G G G G G &.:.=.=.=.=.=.=.< . . . ",
". . . . b b b b b b b b b b b b < , , , , , , , b b b b G G G G &.=.=.=.=.=.=.=.A b b b G G G G G G G H &.:.=.=.=.=.=.:.< . . . ",
"b b b b < < < < < < < < < < < < A G G A b b b b < < < < < < < < G H H H &.=.=.:.e < < < < < < < < < < < < 7 7 7 7 7 7 < h b b b ",
"b b b b , , , , , , , , , , , , G G G G b b b b < , , , , , , , A G G G &.=.=.:.8 , , , , , , , , , , , , , , , , , , , l b b b ",
"b b b b , , , , , , , , , , , , G G G G b b b b < , , , , , , , A H H G &.=.=.:.8 , , , , , , , , , , , , , , , , , , , l b b b ",
"b b b b , , , , , , , , , , , , G G G G m b b b < , , , , , , , A H G G &.:.:.:.8 , , , , , , , , , , , , , , , , , , , h b b b ",
"G G G G @.@.@.@.A A A A @.@.@.@.m m m m # + + + l b b b < , , , < < < < 7 7 7 8 + . . . , , , , h l l l A A A A [ @.@.@.&.&.&.&.",
"G G G G =.=.=.=.H G G G =.=.=.=.m b b b + . . . l b b b < , , , , , , , , , , , . . . . , , , , l b b b G G G G @.=.:.:.=.=.=.=.",
"G G G G =.=.=.=.H G G G =.=.=.=.m b b b + . . . l b b b < , , , , , , , , , , , . . . . , , < , l b b b G G G G @.=.=.=.=.=.=.=.",
"G G G G =.=.=.=.H G G G =.=.=.:.m b b b + . . . l b b b < , , , , , , , , , , , . . . . , , , , l b b b G G G G @.=.=.=.=.=.=.=.",
"G G G G Y Y Y Y m m m m e e e e 7 7 7 < h h h h 7 < < < , , , , h l l l m A A m _ [ [ [  . . . .A b b b 8 7 7 7 8 e e 8 m A A A ",
"G G G G G G G G b b b b < , , , , , , , b m b b < , , , , , , , l b b b G G G G &.=.=.=.=.=.:.:.G b b b 7 , , , , , , , l b b b ",
"G G G G G G G G b b b b < , , , , , , , b m b b < , , , , , , , l b b b G G G G &.=.=.=.=.=.=.:.G b b b 7 , , , , , , , l b b b ",
"G G G G G G G G b b b b < , , , , , , , b b b b < , , , , , , , l b b b G G G G &.=.=.=.=.=.=.:.G b b b 7 , , , , , , , l b b b ",
"7 8 8 7 = = = = 7 7 7 7 , , , , + + + + [  . . .[ [ [ [ A m m m 8 7 7 7 b m m m Y E E E 8 < < < 7 7 7 7 < , , , d l l l A G A A ",
", , , , . . . . , , , , , , , , . . . . &.=.=.=.=.=.=.=.Y H G G < , , , b b b b G H G G # . . . , , , , , , , , l b b b G G G G ",
", , , , . . . . , , , , , , , , . . . . &.=.=.=.=.=.=.=.Y H G G < , , , l b b b G G G G # . . . , , , , , , , , l b b b G G G G ",
", , , , . . . . , , , , , , , , . . . . &.=.=.=.=.=.=.=.Y H G G < , , , l b b b G G G G # . . . , , , , , , , , l b b b G G G G "
};
